<svg width="22" height="15" viewBox="0 0 22 15" fill="none" xmlns="http://www.w3.org/2000/svg">
<path d="M0.5 12.5C0.5 10.2909 2.29086 8.5 4.5 8.5C6.70914 8.5 8.5 10.2909 8.5 12.5V12.7857C8.5 13.7325 7.73249 14.5 6.78571 14.5H2.21429C1.26751 14.5 0.5 13.7325 0.5 12.7857V12.5Z" fill="#F89531"/>
<path d="M13.5 12.5C13.5 10.2909 15.2909 8.5 17.5 8.5C19.7091 8.5 21.5 10.2909 21.5 12.5V12.7857C21.5 13.7325 20.7325 14.5 19.7857 14.5H15.2143C14.2675 14.5 13.5 13.7325 13.5 12.7857V12.5Z" fill="#F89531"/>
</svg>
