<svg width="24" height="24" viewBox="0 0 24 24" fill="none" xmlns="http://www.w3.org/2000/svg">
<path fill-rule="evenodd" clip-rule="evenodd" d="M15.6582 5.52569C14.2002 4.6692 12.4964 4.32822 10.8211 4.55765C9.14576 4.78707 7.59639 5.57355 6.42244 6.79047C5.24849 8.00739 4.51826 9.58395 4.34933 11.2663C4.21337 12.6204 4.44741 13.9796 5.01769 15.2021L3.80356 14.9135C3.53487 14.8497 3.26529 15.0157 3.20144 15.2844C3.13758 15.553 3.30362 15.8226 3.57231 15.8864L5.81837 16.4202L5.8186 16.4203C6.08622 16.4839 6.35472 16.3194 6.41991 16.0526L6.42067 16.0495L6.42068 16.0494L6.95455 13.8034C7.01841 13.5348 6.85238 13.2652 6.58372 13.2014C6.31506 13.1375 6.0455 13.3036 5.98165 13.5722L5.77605 14.4372C5.38983 13.4685 5.23896 12.4156 5.34433 11.3662C5.49082 9.90728 6.12407 8.54009 7.14214 7.48476C8.16021 6.42942 9.50385 5.74736 10.9568 5.5484C12.4096 5.34944 13.8872 5.64515 15.1516 6.38792C16.416 7.1307 17.3936 8.27731 17.9271 9.64313C18.4605 11.009 18.5188 12.5145 18.0924 13.9175C17.6661 15.3204 16.78 16.539 15.5767 17.3772C14.3735 18.2154 12.9232 18.6243 11.4592 18.5381C11.1836 18.5219 10.9469 18.7322 10.9307 19.0078C10.9145 19.2835 11.1248 19.5201 11.4004 19.5364C13.0885 19.6358 14.7609 19.1643 16.1483 18.1978C17.5358 17.2313 18.5576 15.826 19.0492 14.2082C19.5408 12.5905 19.4737 10.8543 18.8586 9.27933C18.2434 7.70435 17.1161 6.38219 15.6582 5.52569Z" fill="#292929"/>
</svg>
